<svg xmlns="http://www.w3.org/2000/svg" width="49" height="50" viewBox="0 0 49 50"><path fill="#4A4A4A" d="M34.84 29.807c-.622 0-1.176.252-1.6.64-2.272 2.276-5.404 3.687-8.86 3.687-3.372 0-6.424-1.357-8.704-3.557-.048-.047-.108-.083-.17-.117-.406-.334-.906-.562-1.473-.562-1.297 0-2.35 1.057-2.35 2.358 0 .568.227 1.072.56 1.478l-.052.054c3.12 3.13 7.43 5.065 12.19 5.065s9.07-1.937 12.166-5.088c.392-.42.642-.977.642-1.6 0-.186-.02-.367-.062-.542-.243-1.042-1.175-1.816-2.287-1.816z"/><ellipse fill="#4A4A4A" cx="16.545" cy="21.554" rx="4.702" ry="4.717"/><ellipse fill="#4A4A4A" cx="32.215" cy="21.555" rx="4.7" ry="4.718"/><path fill="#F8E81C" d="M24.454 0C10.947 0 0 10.982 0 24.537s10.947 24.538 24.454 24.538c13.508 0 24.455-10.982 24.455-24.538C48.907 10.982 37.96 0 24.453 0zm12.092 33.764c-3.096 3.15-7.405 5.088-12.167 5.088-4.76 0-9.07-1.937-12.19-5.065l.053-.054c-.333-.405-.56-.91-.56-1.478 0-1.302 1.053-2.358 2.35-2.358.567 0 1.067.23 1.473.562.062.033.122.07.17.116 2.28 2.2 5.332 3.557 8.703 3.557 3.456 0 6.588-1.41 8.86-3.688.424-.387.978-.64 1.6-.64 1.11 0 2.043.775 2.286 1.816.04.176.062.357.062.544 0 .623-.25 1.18-.642 1.6zm-20-16.927c2.595 0 4.7 2.11 4.7 4.718 0 2.605-2.104 4.716-4.7 4.716-2.6 0-4.703-2.11-4.703-4.715 0-2.607 2.105-4.718 4.702-4.718zm10.97 4.718c0-2.607 2.104-4.718 4.7-4.718s4.7 2.11 4.7 4.718c0 2.605-2.105 4.716-4.7 4.716s-4.7-2.11-4.7-4.715z"/></svg>