<svg xmlns="http://www.w3.org/2000/svg" width="49" height="50" viewBox="0 0 49 50"><path fill="#fff" d="M24.454 0C10.947 0 0 10.982 0 24.537s10.947 24.538 24.454 24.538c13.508 0 24.455-10.982 24.455-24.538C48.907 10.982 37.96 0 24.453 0zm7.76 16.837c2.597 0 4.7 2.11 4.7 4.718 0 2.605-2.103 4.716-4.7 4.716s-4.698-2.11-4.698-4.715c0-2.607 2.103-4.718 4.7-4.718zm-15.67 0c2.597 0 4.703 2.11 4.703 4.718 0 2.605-2.105 4.716-4.702 4.716-2.598 0-4.702-2.11-4.702-4.715 0-2.607 2.105-4.718 4.702-4.718zM36.57 33.785c-3.118 3.13-7.428 5.065-12.19 5.065-4.758 0-9.067-1.936-12.187-5.065l.053-.053c-.333-.406-.56-.91-.56-1.478 0-1.302 1.053-2.358 2.35-2.358.567 0 1.067.228 1.473.562l.013-.014c.048.048.107.084.157.13.006.01.016.012.025.02 2.255 2.18 5.307 3.538 8.678 3.538 3.457 0 6.59-1.41 8.86-3.688l.008.006c.417-.393.97-.644 1.592-.644 1.3 0 2.35 1.056 2.35 2.358 0 .622-.25 1.178-.642 1.598l.02.023z"/></svg>