<?xml version="1.0" encoding="UTF-8" standalone="no"?>
<svg
   viewBox="0 0 50 49"
   version="1.1"
   id="svg4"
   sodipodi:docname="button-view2.svg"
   inkscape:version="1.1.1 (3bf5ae0d25, 2021-09-20)"
   width="50"
   height="49"
   xmlns:inkscape="http://www.inkscape.org/namespaces/inkscape"
   xmlns:sodipodi="http://sodipodi.sourceforge.net/DTD/sodipodi-0.dtd"
   xmlns="http://www.w3.org/2000/svg"
   xmlns:svg="http://www.w3.org/2000/svg">
  <defs
     id="defs8" />
  <sodipodi:namedview
     id="namedview6"
     pagecolor="#ffffff"
     bordercolor="#666666"
     borderopacity="1.0"
     inkscape:pageshadow="2"
     inkscape:pageopacity="0.0"
     inkscape:pagecheckerboard="0"
     showgrid="false"
     inkscape:zoom="5.2031248"
     inkscape:cx="5.1891894"
     inkscape:cy="67.74775"
     inkscape:window-width="1920"
     inkscape:window-height="1051"
     inkscape:window-x="0"
     inkscape:window-y="0"
     inkscape:window-maximized="1"
     inkscape:current-layer="svg4"
     fit-margin-top="1"
     fit-margin-left="1"
     fit-margin-right="0"
     fit-margin-bottom="0" />
  <!-- Font Awesome Free 5.15.4 by @fontawesome - https://fontawesome.com License - https://fontawesome.com/license/free (Icons: CC BY 4.0, Fonts: SIL OFL 1.1, Code: MIT License) -->
  <path
     d="M 49.11058,23.523366 C 44.49726,13.978906 35.364187,7.5212186 24.90658,7.5212186 14.448972,7.5212186 5.3133474,13.983416 0.70257441,23.52427 a 2.7520017,2.918092 0 0 0 0,2.633048 C 5.3158994,35.701773 14.448972,42.159468 24.90658,42.159468 c 10.457607,0 19.59323,-6.462198 24.204,-16.003053 a 2.7520017,2.918092 0 0 0 0,-2.633049 z m -24.204,14.306321 A 12.250023,12.989343 0 1 1 37.156602,24.840342 12.244068,12.983029 0 0 1 24.90658,37.829687 Z m 0,-21.648906 a 8.1079839,8.5973219 0 0 0 -2.153112,0.341872 4.0705806,4.3162505 0 0 1 -5.691157,6.034632 8.1479667,8.6397169 0 1 0 7.844269,-6.376504 z"
     id="path2"
     style="fill:#ffffff;fill-opacity:1;stroke-width:0.0875983" />
</svg>
